<svg viewBox="0 0 200 200" xmlns="http://www.w3.org/2000/svg">
  <defs>
    <linearGradient id="bgGradient" x1="0%" y1="0%" x2="100%" y2="100%">
      <stop offset="0%" style="stop-color:#667eea;stop-opacity:1" />
      <stop offset="100%" style="stop-color:#764ba2;stop-opacity:1" />
    </linearGradient>
    <linearGradient id="dropGradient" x1="0%" y1="0%" x2="100%" y2="100%">
      <stop offset="0%" style="stop-color:#4facfe;stop-opacity:1" />
      <stop offset="100%" style="stop-color:#00f2fe;stop-opacity:1" />
    </linearGradient>
    <filter id="glow">
      <feGaussianBlur stdDeviation="3" result="coloredBlur"/>
      <feMerge>
        <feMergeNode in="coloredBlur"/>
        <feMergeNode in="SourceGraphic"/>
      </feMerge>
    </filter>
  </defs>
  <circle cx="100" cy="100" r="95" fill="url(#bgGradient)" stroke="rgba(255,255,255,0.2)" stroke-width="2"/>
  <rect x="60" y="45" width="80" height="100" rx="8" ry="8" fill="rgba(255,255,255,0.95)" stroke="rgba(0,0,0,0.1)" stroke-width="1"/>
  <rect x="85" y="35" width="30" height="20" rx="4" ry="4" fill="rgba(255,255,255,0.9)" stroke="rgba(0,0,0,0.2)" stroke-width="1"/>
  <rect x="90" y="38" width="20" height="14" rx="2" ry="2" fill="rgba(100,100,100,0.3)"/>
  <rect x="70" y="65" width="60" height="3" rx="1.5" fill="rgba(0,0,0,0.15)"/>
  <rect x="70" y="75" width="45" height="3" rx="1.5" fill="rgba(0,0,0,0.15)"/>
  <rect x="70" y="85" width="55" height="3" rx="1.5" fill="rgba(0,0,0,0.15)"/>
  <rect x="70" y="95" width="40" height="3" rx="1.5" fill="rgba(0,0,0,0.15)"/>
  <path d="M45 80 L55 70 L50 75 L60 65 L50 75 L55 80 Z" fill="url(#dropGradient)" filter="url(#glow)" opacity="0.8"/>
  <path d="M145 90 L155 80 L150 85 L160 75 L150 85 L155 90 Z" fill="url(#dropGradient)" filter="url(#glow)" opacity="0.8"/>
  <circle cx="40" cy="120" r="4" fill="url(#dropGradient)" filter="url(#glow)" opacity="0.7"/>
  <circle cx="160" cy="60" r="3" fill="url(#dropGradient)" filter="url(#glow)" opacity="0.6"/>
  <circle cx="30" cy="160" r="2" fill="url(#dropGradient)" filter="url(#glow)" opacity="0.5"/>
  <path d="M20 100 Q30 90 40 100 T60 100" stroke="rgba(255,255,255,0.3)" stroke-width="2" fill="none" opacity="0.6"/>
  <path d="M140 100 Q150 90 160 100 T180 100" stroke="rgba(255,255,255,0.3)" stroke-width="2" fill="none" opacity="0.6"/>
</svg>

